solid Skull V3
facet normal 0.6494480483301506 0.7604059656000591 6.309031545830479e-17
  outer loop
    vertex 162.90023393343344 371.16202021823744 8.362543096850109
    vertex 162.90023393343344 371.16202021823744 9.862543096850354
    vertex 163.7316662719469 370.45190991664344 8.362543096850109
  endloop
endfacet
facet normal 0.6494480483301506 0.7604059656000591 6.309031545830479e-17
  outer loop
    vertex 163.7316662719469 370.45190991664344 9.862543096850354
    vertex 163.7316662719469 370.45190991664344 8.362543096850109
    vertex 162.90023393343344 371.16202021823744 9.862543096850354
  endloop
endfacet
facet normal 9.714451465470329e-17 1.2924697071193955e-26 -1.0
  outer loop
    vertex 158.80454666402966 358.55679093577515 8.362543096850107
    vertex 157.7145114097214 358.6425785707882 8.362543096850107
    vertex 159.8945819183379 358.6425785707882 8.362543096850109
  endloop
endfacet
facet normal 9.714451465470329e-17 1.2924697071193955e-26 -1.0
  outer loop
    vertex 160.95777688706548 358.89782909954056 8.362543096850109
    vertex 159.8945819183379 358.6425785707882 8.362543096850109
    vertex 157.7145114097214 358.6425785707882 8.362543096850107
  endloop
endfacet
facet normal 9.714451465470329e-17 1.2924697071193955e-26 -1.0
  outer loop
    vertex 156.6513164409938 358.89782909954056 8.362543096850107
    vertex 160.95777688706548 358.89782909954056 8.362543096850109
    vertex 157.7145114097214 358.6425785707882 8.362543096850107
  endloop
endfacet
facet normal 9.714451465470329e-17 1.2924697071193955e-26 -1.0
  outer loop
    vertex 161.9679521815405 359.3162574068864 8.362543096850109
    vertex 160.95777688706548 358.89782909954056 8.362543096850109
    vertex 156.6513164409938 358.89782909954056 8.362543096850107
  endloop
endfacet
facet normal 9.714451465470329e-17 1.2924697071193955e-26 -1.0
  outer loop
    vertex 155.64114114651878 359.3162574068864 8.362543096850107
    vertex 161.9679521815405 359.3162574068864 8.362543096850109
    vertex 156.6513164409938 358.89782909954056 8.362543096850107
  endloop
endfacet
facet normal 9.714451465470329e-17 1.2924697071193955e-26 -1.0
  outer loop
    vertex 162.90023393343344 359.88756039921486 8.362543096850109
    vertex 161.9679521815405 359.3162574068864 8.362543096850109
    vertex 155.64114114651878 359.3162574068864 8.362543096850107
  endloop
endfacet
facet normal 9.714451465470329e-17 1.2924697071193955e-26 -1.0
  outer loop
    vertex 154.70885939462588 359.88756039921486 8.362543096850107
    vertex 162.90023393343344 359.88756039921486 8.362543096850109
    vertex 155.64114114651878 359.3162574068864 8.362543096850107
  endloop
endfacet
facet normal 9.714451465470329e-17 1.2924697071193955e-26 -1.0
  outer loop
    vertex 163.7316662719469 360.59767070080886 8.362543096850109
    vertex 162.90023393343344 359.88756039921486 8.362543096850109
    vertex 154.70885939462588 359.88756039921486 8.362543096850107
  endloop
endfacet
facet normal 9.714451465470329e-17 1.2924697071193955e-26 -1.0
  outer loop
    vertex 153.87742705611242 360.59767070080886 8.362543096850107
    vertex 163.7316662719469 360.59767070080886 8.362543096850109
    vertex 154.70885939462588 359.88756039921486 8.362543096850107
  endloop
endfacet
facet normal 9.714451465470329e-17 1.2924697071193955e-26 -1.0
  outer loop
    vertex 164.44177657354098 361.4291030393224 8.362543096850109
    vertex 163.7316662719469 360.59767070080886 8.362543096850109
    vertex 153.87742705611242 360.59767070080886 8.362543096850107
  endloop
endfacet
facet normal 9.714451465470329e-17 1.2924697071193955e-26 -1.0
  outer loop
    vertex 153.1673167545183 361.4291030393224 8.362543096850107
    vertex 164.44177657354098 361.4291030393224 8.362543096850109
    vertex 153.87742705611242 360.59767070080886 8.362543096850107
  endloop
endfacet
facet normal 9.714451465470329e-17 1.2924697071193955e-26 -1.0
  outer loop
    vertex 165.01307956586942 362.36138479121524 8.362543096850109
    vertex 164.44177657354098 361.4291030393224 8.362543096850109
    vertex 153.1673167545183 361.4291030393224 8.362543096850107
  endloop
endfacet
facet normal 9.714451465470329e-17 1.2924697071193955e-26 -1.0
  outer loop
    vertex 152.59601376218987 362.36138479121524 8.362543096850107
    vertex 165.01307956586942 362.36138479121524 8.362543096850109
    vertex 153.1673167545183 361.4291030393224 8.362543096850107
  endloop
endfacet
facet normal 9.714451465470329e-17 1.2924697071193955e-26 -1.0
  outer loop
    vertex 165.4315078732152 363.37156008569036 8.362543096850109
    vertex 165.01307956586942 362.36138479121524 8.362543096850109
    vertex 152.59601376218987 362.36138479121524 8.362543096850107
  endloop
endfacet
facet normal 9.714451465470329e-17 1.2924697071193955e-26 -1.0
  outer loop
    vertex 152.1775854548441 363.37156008569036 8.362543096850107
    vertex 165.4315078732152 363.37156008569036 8.362543096850109
    vertex 152.59601376218987 362.36138479121524 8.362543096850107
  endloop
endfacet
facet normal 9.714451465470329e-17 1.2924697071193955e-26 -1.0
  outer loop
    vertex 165.68675840196755 364.43475505441785 8.362543096850109
    vertex 165.4315078732152 363.37156008569036 8.362543096850109
    vertex 152.1775854548441 363.37156008569036 8.362543096850107
  endloop
endfacet
facet normal 9.714451465470329e-17 1.2924697071193955e-26 -1.0
  outer loop
    vertex 158.80454666402966 363.92479030872613 8.362543096850107
    vertex 165.68675840196755 364.43475505441785 8.362543096850109
    vertex 152.1775854548441 363.37156008569036 8.362543096850107
  endloop
endfacet
facet normal 9.714451465470329e-17 1.2924697071193955e-26 -1.0
  outer loop
    vertex 159.21865713619368 363.9793089866637 8.362543096850109
    vertex 165.68675840196755 364.43475505441785 8.362543096850109
    vertex 158.80454666402966 363.92479030872613 8.362543096850107
  endloop
endfacet
facet normal 9.714451465470329e-17 1.2924697071193955e-26 -1.0
  outer loop
    vertex 159.60454666402964 364.139149662671 8.362543096850109
    vertex 165.68675840196755 364.43475505441785 8.362543096850109
    vertex 159.21865713619368 363.9793089866637 8.362543096850109
  endloop
endfacet
facet normal 9.714451465470329e-17 1.2924697071193955e-26 -1.0
  outer loop
    vertex 159.9359175139281 364.3934194588276 8.362543096850109
    vertex 165.68675840196755 364.43475505441785 8.362543096850109
    vertex 159.60454666402964 364.139149662671 8.362543096850109
  endloop
endfacet
facet normal 9.714451465470329e-17 1.2924697071193955e-26 -1.0
  outer loop
    vertex 160.19018731008475 364.72479030872614 8.362543096850109
    vertex 165.68675840196755 364.43475505441785 8.362543096850109
    vertex 159.9359175139281 364.3934194588276 8.362543096850109
  endloop
endfacet
facet normal 9.714451465470329e-17 1.2924697071193955e-26 -1.0
  outer loop
    vertex 165.77254603698063 365.52479030872615 8.362543096850109
    vertex 165.68675840196755 364.43475505441785 8.362543096850109
    vertex 160.19018731008475 364.72479030872614 8.362543096850109
  endloop
endfacet
facet normal 9.714451465470329e-17 1.2924697071193955e-26 -1.0
  outer loop
    vertex 160.35002798609216 365.1106798365621 8.362543096850109
    vertex 165.77254603698063 365.52479030872615 8.362543096850109
    vertex 160.19018731008475 364.72479030872614 8.362543096850109
  endloop
endfacet
facet normal 9.714451465470329e-17 1.2924697071193955e-26 -1.0
  outer loop
    vertex 160.40454666402965 365.52479030872615 8.362543096850109
    vertex 165.77254603698063 365.52479030872615 8.362543096850109
    vertex 160.35002798609216 365.1106798365621 8.362543096850109
  endloop
endfacet
facet normal 9.714451465470329e-17 1.2924697071193955e-26 -1.0
  outer loop
    vertex 165.68675840196755 366.61482556303446 8.362543096850109
    vertex 165.77254603698063 365.52479030872615 8.362543096850109
    vertex 160.40454666402965 365.52479030872615 8.362543096850109
  endloop
endfacet
facet normal 9.714451465470329e-17 1.2924697071193955e-26 -1.0
  outer loop
    vertex 160.35002798609216 365.9389007808902 8.362543096850109
    vertex 165.68675840196755 366.61482556303446 8.362543096850109
    vertex 160.40454666402965 365.52479030872615 8.362543096850109
  endloop
endfacet
facet normal 9.714451465470329e-17 1.2924697071193955e-26 -1.0
  outer loop
    vertex 160.19018731008475 366.32479030872616 8.362543096850109
    vertex 165.68675840196755 366.61482556303446 8.362543096850109
    vertex 160.35002798609216 365.9389007808902 8.362543096850109
  endloop
endfacet
facet normal 9.714451465470329e-17 1.2924697071193955e-26 -1.0
  outer loop
    vertex 159.9359175139281 366.6561611586247 8.362543096850109
    vertex 165.68675840196755 366.61482556303446 8.362543096850109
    vertex 160.19018731008475 366.32479030872616 8.362543096850109
  endloop
endfacet
facet normal 9.714451465470329e-17 1.2924697071193955e-26 -1.0
  outer loop
    vertex 165.4315078732152 367.67802053176194 8.362543096850109
    vertex 165.68675840196755 366.61482556303446 8.362543096850109
    vertex 159.9359175139281 366.6561611586247 8.362543096850109
  endloop
endfacet
facet normal 9.714451465470329e-17 1.2924697071193955e-26 -1.0
  outer loop
    vertex 159.60454666402964 366.91043095478125 8.362543096850109
    vertex 165.4315078732152 367.67802053176194 8.362543096850109
    vertex 159.9359175139281 366.6561611586247 8.362543096850109
  endloop
endfacet
facet normal 9.714451465470329e-17 1.2924697071193955e-26 -1.0
  outer loop
    vertex 159.21865713619368 367.0702716307886 8.362543096850109
    vertex 165.4315078732152 367.67802053176194 8.362543096850109
    vertex 159.60454666402964 366.91043095478125 8.362543096850109
  endloop
endfacet
facet normal 9.714451465470329e-17 1.2924697071193955e-26 -1.0
  outer loop
    vertex 158.80454666402966 367.1247903087261 8.362543096850107
    vertex 165.4315078732152 367.67802053176194 8.362543096850109
    vertex 159.21865713619368 367.0702716307886 8.362543096850109
  endloop
endfacet
facet normal 9.714451465470329e-17 1.2924697071193955e-26 -1.0
  outer loop
    vertex 152.1775854548441 363.37156008569036 8.362543096850107
    vertex 151.92233492609174 364.43475505441785 8.362543096850107
    vertex 158.80454666402966 363.92479030872613 8.362543096850107
  endloop
endfacet
facet normal 9.714451465470329e-17 1.2924697071193955e-26 -1.0
  outer loop
    vertex 158.3904361918656 363.9793089866637 8.362543096850107
    vertex 158.80454666402966 363.92479030872613 8.362543096850107
    vertex 151.92233492609174 364.43475505441785 8.362543096850107
  endloop
endfacet
facet normal 9.714451465470329e-17 1.2924697071193955e-26 -1.0
  outer loop
    vertex 158.00454666402965 364.139149662671 8.362543096850107
    vertex 158.3904361918656 363.9793089866637 8.362543096850107
    vertex 151.92233492609174 364.43475505441785 8.362543096850107
  endloop
endfacet
facet normal 9.714451465470329e-17 1.2924697071193955e-26 -1.0
  outer loop
    vertex 157.67317581413118 364.3934194588276 8.362543096850107
    vertex 158.00454666402965 364.139149662671 8.362543096850107
    vertex 151.92233492609174 364.43475505441785 8.362543096850107
  endloop
endfacet
facet normal 9.714451465470329e-17 1.2924697071193955e-26 -1.0
  outer loop
    vertex 157.41890601797454 364.72479030872614 8.362543096850107
    vertex 157.67317581413118 364.3934194588276 8.362543096850107
    vertex 151.92233492609174 364.43475505441785 8.362543096850107
  endloop
endfacet
facet normal 9.714451465470329e-17 1.2924697071193955e-26 -1.0
  outer loop
    vertex 151.8365472910787 365.52479030872615 8.362543096850107
    vertex 157.41890601797454 364.72479030872614 8.362543096850107
    vertex 151.92233492609174 364.43475505441785 8.362543096850107
  endloop
endfacet
facet normal 9.714451465470329e-17 1.2924697071193955e-26 -1.0
  outer loop
    vertex 157.25906534196716 365.1106798365621 8.362543096850107
    vertex 157.41890601797454 364.72479030872614 8.362543096850107
    vertex 151.8365472910787 365.52479030872615 8.362543096850107
  endloop
endfacet
facet normal 9.714451465470329e-17 1.2924697071193955e-26 -1.0
  outer loop
    vertex 157.20454666402964 365.52479030872615 8.362543096850107
    vertex 157.25906534196716 365.1106798365621 8.362543096850107
    vertex 151.8365472910787 365.52479030872615 8.362543096850107
  endloop
endfacet
facet normal 9.714451465470329e-17 1.2924697071193955e-26 -1.0
  outer loop
    vertex 157.25906534196716 365.9389007808902 8.362543096850107
    vertex 157.20454666402964 365.52479030872615 8.362543096850107
    vertex 151.8365472910787 365.52479030872615 8.362543096850107
  endloop
endfacet
facet normal 9.714451465470329e-17 1.2924697071193955e-26 -1.0
  outer loop
    vertex 151.92233492609174 366.61482556303446 8.362543096850107
    vertex 157.25906534196716 365.9389007808902 8.362543096850107
    vertex 151.8365472910787 365.52479030872615 8.362543096850107
  endloop
endfacet
facet normal 9.714451465470329e-17 1.2924697071193955e-26 -1.0
  outer loop
    vertex 157.41890601797454 366.32479030872616 8.362543096850107
    vertex 157.25906534196716 365.9389007808902 8.362543096850107
    vertex 151.92233492609174 366.61482556303446 8.362543096850107
  endloop
endfacet
facet normal 9.714451465470329e-17 1.2924697071193955e-26 -1.0
  outer loop
    vertex 157.67317581413118 366.6561611586247 8.362543096850107
    vertex 157.41890601797454 366.32479030872616 8.362543096850107
    vertex 151.92233492609174 366.61482556303446 8.362543096850107
  endloop
endfacet
facet normal 9.714451465470329e-17 1.2924697071193955e-26 -1.0
  outer loop
    vertex 152.1775854548441 367.67802053176194 8.362543096850107
    vertex 157.67317581413118 366.6561611586247 8.362543096850107
    vertex 151.92233492609174 366.61482556303446 8.362543096850107
  endloop
endfacet
facet normal 9.714451465470329e-17 1.2924697071193955e-26 -1.0
  outer loop
    vertex 158.00454666402965 366.91043095478125 8.362543096850107
    vertex 157.67317581413118 366.6561611586247 8.362543096850107
    vertex 152.1775854548441 367.67802053176194 8.362543096850107
  endloop
endfacet
facet normal 9.714451465470329e-17 1.2924697071193955e-26 -1.0
  outer loop
    vertex 158.3904361918656 367.0702716307886 8.362543096850107
    vertex 158.00454666402965 366.91043095478125 8.362543096850107
    vertex 152.1775854548441 367.67802053176194 8.362543096850107
  endloop
endfacet
facet normal 9.714451465470329e-17 1.2924697071193955e-26 -1.0
  outer loop
    vertex 158.80454666402966 367.1247903087261 8.362543096850107
    vertex 158.3904361918656 367.0702716307886 8.362543096850107
    vertex 152.1775854548441 367.67802053176194 8.362543096850107
  endloop
endfacet
facet normal 9.714451465470329e-17 1.2924697071193955e-26 -1.0
  outer loop
    vertex 165.4315078732152 367.67802053176194 8.362543096850109
    vertex 158.80454666402966 367.1247903087261 8.362543096850107
    vertex 152.1775854548441 367.67802053176194 8.362543096850107
  endloop
endfacet
facet normal 9.714451465470329e-17 1.2924697071193955e-26 -1.0
  outer loop
    vertex 165.01307956586942 368.688195826237 8.362543096850109
    vertex 165.4315078732152 367.67802053176194 8.362543096850109
    vertex 152.1775854548441 367.67802053176194 8.362543096850107
  endloop
endfacet
facet normal 9.714451465470329e-17 1.2924697071193955e-26 -1.0
  outer loop
    vertex 152.59601376218987 368.688195826237 8.362543096850107
    vertex 165.01307956586942 368.688195826237 8.362543096850109
    vertex 152.1775854548441 367.67802053176194 8.362543096850107
  endloop
endfacet
facet normal 9.714451465470329e-17 1.2924697071193955e-26 -1.0
  outer loop
    vertex 164.44177657354098 369.6204775781299 8.362543096850109
    vertex 165.01307956586942 368.688195826237 8.362543096850109
    vertex 152.59601376218987 368.688195826237 8.362543096850107
  endloop
endfacet
facet normal 9.714451465470329e-17 1.2924697071193955e-26 -1.0
  outer loop
    vertex 153.1673167545183 369.6204775781299 8.362543096850107
    vertex 164.44177657354098 369.6204775781299 8.362543096850109
    vertex 152.59601376218987 368.688195826237 8.362543096850107
  endloop
endfacet
facet normal 9.714451465470329e-17 1.2924697071193955e-26 -1.0
  outer loop
    vertex 163.7316662719469 370.45190991664344 8.362543096850109
    vertex 164.44177657354098 369.6204775781299 8.362543096850109
    vertex 153.1673167545183 369.6204775781299 8.362543096850107
  endloop
endfacet
facet normal 9.714451465470329e-17 1.2924697071193955e-26 -1.0
  outer loop
    vertex 153.87742705611242 370.45190991664344 8.362543096850107
    vertex 163.7316662719469 370.45190991664344 8.362543096850109
    vertex 153.1673167545183 369.6204775781299 8.362543096850107
  endloop
endfacet
facet normal 9.714451465470329e-17 1.2924697071193955e-26 -1.0
  outer loop
    vertex 162.90023393343344 371.16202021823744 8.362543096850109
    vertex 163.7316662719469 370.45190991664344 8.362543096850109
    vertex 153.87742705611242 370.45190991664344 8.362543096850107
  endloop
endfacet
facet normal 9.714451465470329e-17 1.2924697071193955e-26 -1.0
  outer loop
    vertex 154.70885939462588 371.16202021823744 8.362543096850107
    vertex 162.90023393343344 371.16202021823744 8.362543096850109
    vertex 153.87742705611242 370.45190991664344 8.362543096850107
  endloop
endfacet
facet normal 9.714451465470329e-17 1.2924697071193955e-26 -1.0
  outer loop
    vertex 161.9679521815405 371.7333232105659 8.362543096850109
    vertex 162.90023393343344 371.16202021823744 8.362543096850109
    vertex 154.70885939462588 371.16202021823744 8.362543096850107
  endloop
endfacet
facet normal 9.714451465470329e-17 1.2924697071193955e-26 -1.0
  outer loop
    vertex 155.64114114651878 371.7333232105659 8.362543096850107
    vertex 161.9679521815405 371.7333232105659 8.362543096850109
    vertex 154.70885939462588 371.16202021823744 8.362543096850107
  endloop
endfacet
facet normal 9.714451465470329e-17 1.2924697071193955e-26 -1.0
  outer loop
    vertex 160.95777688706548 372.15175151791175 8.362543096850109
    vertex 161.9679521815405 371.7333232105659 8.362543096850109
    vertex 155.64114114651878 371.7333232105659 8.362543096850107
  endloop
endfacet
facet normal 9.714451465470329e-17 1.2924697071193955e-26 -1.0
  outer loop
    vertex 156.6513164409938 372.15175151791175 8.362543096850107
    vertex 160.95777688706548 372.15175151791175 8.362543096850109
    vertex 155.64114114651878 371.7333232105659 8.362543096850107
  endloop
endfacet
facet normal 9.714451465470329e-17 1.2924697071193955e-26 -1.0
  outer loop
    vertex 159.8945819183379 372.4070020466641 8.362543096850109
    vertex 160.95777688706548 372.15175151791175 8.362543096850109
    vertex 156.6513164409938 372.15175151791175 8.362543096850107
  endloop
endfacet
facet normal 9.714451465470329e-17 1.2924697071193955e-26 -1.0
  outer loop
    vertex 157.7145114097214 372.4070020466641 8.362543096850107
    vertex 159.8945819183379 372.4070020466641 8.362543096850109
    vertex 156.6513164409938 372.15175151791175 8.362543096850107
  endloop
endfacet
facet normal 9.714451465470329e-17 1.2924697071193955e-26 -1.0
  outer loop
    vertex 158.80454666402966 372.4927896816771 8.362543096850107
    vertex 159.8945819183379 372.4070020466641 8.362543096850109
    vertex 157.7145114097214 372.4070020466641 8.362543096850107
  endloop
endfacet
facet normal 0.38268343236512004 0.9238795325112743 3.7175596315446426e-17
  outer loop
    vertex 160.95777688706548 372.15175151791175 8.362543096850109
    vertex 160.95777688706548 372.15175151791175 9.862543096850354
    vertex 161.9679521815405 371.7333232105659 8.362543096850109
  endloop
endfacet
facet normal 0.38268343236512004 0.9238795325112743 3.7175596315446426e-17
  outer loop
    vertex 161.9679521815405 371.7333232105659 9.862543096850354
    vertex 161.9679521815405 371.7333232105659 8.362543096850109
    vertex 160.95777688706548 372.15175151791175 9.862543096850354
  endloop
endfacet
facet normal 0.9723699203976723 -0.2334453638559232 9.446040397884714e-17
  outer loop
    vertex 165.4315078732152 363.37156008569036 8.362543096850109
    vertex 165.68675840196755 364.43475505441785 8.362543096850109
    vertex 165.4315078732152 363.37156008569036 9.862543096850354
  endloop
endfacet
facet normal 0.9723699203976723 -0.2334453638559232 9.446040397884714e-17
  outer loop
    vertex 165.68675840196755 364.43475505441785 9.862543096850354
    vertex 165.4315078732152 363.37156008569036 9.862543096850354
    vertex 165.68675840196755 364.43475505441785 8.362543096850109
  endloop
endfacet
facet normal 0.233445363855924 0.9723699203976721 2.2677936582741938e-17
  outer loop
    vertex 159.8945819183379 372.4070020466641 8.362543096850109
    vertex 159.8945819183379 372.4070020466641 9.862543096850354
    vertex 160.95777688706548 372.15175151791175 8.362543096850109
  endloop
endfacet
facet normal 0.233445363855924 0.9723699203976721 2.2677936582741938e-17
  outer loop
    vertex 160.95777688706548 372.15175151791175 9.862543096850354
    vertex 160.95777688706548 372.15175151791175 8.362543096850109
    vertex 159.8945819183379 372.4070020466641 9.862543096850354
  endloop
endfacet
facet normal 0.852640164354083 -0.5224985647159641 8.28293149345307e-17
  outer loop
    vertex 164.44177657354098 361.4291030393224 8.362543096850109
    vertex 165.01307956586942 362.36138479121524 8.362543096850109
    vertex 164.44177657354098 361.4291030393224 9.862543096850354
  endloop
endfacet
facet normal 0.852640164354083 -0.5224985647159641 8.28293149345307e-17
  outer loop
    vertex 165.01307956586942 362.36138479121524 9.862543096850354
    vertex 164.44177657354098 361.4291030393224 9.862543096850354
    vertex 165.01307956586942 362.36138479121524 8.362543096850109
  endloop
endfacet
facet normal 0.7604059656000446 -0.6494480483301678 7.386926846036342e-17
  outer loop
    vertex 163.7316662719469 360.59767070080886 8.362543096850109
    vertex 164.44177657354098 361.4291030393224 8.362543096850109
    vertex 163.7316662719469 360.59767070080886 9.862543096850354
  endloop
endfacet
facet normal 0.7604059656000446 -0.6494480483301678 7.386926846036342e-17
  outer loop
    vertex 164.44177657354098 361.4291030393224 9.862543096850354
    vertex 163.7316662719469 360.59767070080886 9.862543096850354
    vertex 164.44177657354098 361.4291030393224 8.362543096850109
  endloop
endfacet
facet normal 0.923879532511298 -0.3826834323650629 8.974982878027814e-17
  outer loop
    vertex 165.01307956586942 362.36138479121524 8.362543096850109
    vertex 165.4315078732152 363.37156008569036 8.362543096850109
    vertex 165.01307956586942 362.36138479121524 9.862543096850354
  endloop
endfacet
facet normal 0.923879532511298 -0.3826834323650629 8.974982878027814e-17
  outer loop
    vertex 165.4315078732152 363.37156008569036 9.862543096850354
    vertex 165.01307956586942 362.36138479121524 9.862543096850354
    vertex 165.4315078732152 363.37156008569036 8.362543096850109
  endloop
endfacet
facet normal 0.9723699203976723 0.2334453638559232 9.446040398488157e-17
  outer loop
    vertex 165.68675840196755 366.61482556303446 8.362543096850109
    vertex 165.4315078732152 367.67802053176194 8.362543096850109
    vertex 165.68675840196755 366.61482556303446 9.862543096850354
  endloop
endfacet
facet normal 0.9723699203976723 0.2334453638559232 9.446040398488157e-17
  outer loop
    vertex 165.4315078732152 367.67802053176194 9.862543096850354
    vertex 165.68675840196755 366.61482556303446 9.862543096850354
    vertex 165.4315078732152 367.67802053176194 8.362543096850109
  endloop
endfacet
facet normal 0.7604059656000446 0.6494480483301678 7.386926847715126e-17
  outer loop
    vertex 164.44177657354098 369.6204775781299 8.362543096850109
    vertex 163.7316662719469 370.45190991664344 8.362543096850109
    vertex 164.44177657354098 369.6204775781299 9.862543096850354
  endloop
endfacet
facet normal 0.7604059656000446 0.6494480483301678 7.386926847715126e-17
  outer loop
    vertex 163.7316662719469 370.45190991664344 9.862543096850354
    vertex 164.44177657354098 369.6204775781299 9.862543096850354
    vertex 163.7316662719469 370.45190991664344 8.362543096850109
  endloop
endfacet
facet normal 0.5224985647159608 -0.8526401643540851 5.0757869466090976e-17
  outer loop
    vertex 161.9679521815405 359.3162574068864 9.862543096850354
    vertex 161.9679521815405 359.3162574068864 8.362543096850109
    vertex 162.90023393343344 359.88756039921486 9.862543096850354
  endloop
endfacet
facet normal 0.5224985647159608 -0.8526401643540851 5.0757869466090976e-17
  outer loop
    vertex 162.90023393343344 359.88756039921486 8.362543096850109
    vertex 162.90023393343344 359.88756039921486 9.862543096850354
    vertex 161.9679521815405 359.3162574068864 8.362543096850109
  endloop
endfacet
facet normal 0.233445363855924 -0.9723699203976721 2.2677936557606765e-17
  outer loop
    vertex 159.8945819183379 358.6425785707882 9.862543096850354
    vertex 159.8945819183379 358.6425785707882 8.362543096850109
    vertex 160.95777688706548 358.89782909954056 9.862543096850354
  endloop
endfacet
facet normal 0.233445363855924 -0.9723699203976721 2.2677936557606765e-17
  outer loop
    vertex 160.95777688706548 358.89782909954056 8.362543096850109
    vertex 160.95777688706548 358.89782909954056 9.862543096850354
    vertex 159.8945819183379 358.6425785707882 8.362543096850109
  endloop
endfacet
facet normal -0.233445363855924 -0.9723699203976721 -2.2677936582741938e-17
  outer loop
    vertex 156.6513164409938 358.89782909954056 9.862543096850352
    vertex 156.6513164409938 358.89782909954056 8.362543096850107
    vertex 157.7145114097214 358.6425785707882 9.862543096850352
  endloop
endfacet
facet normal -0.233445363855924 -0.9723699203976721 -2.2677936582741938e-17
  outer loop
    vertex 157.7145114097214 358.6425785707882 8.362543096850107
    vertex 157.7145114097214 358.6425785707882 9.862543096850352
    vertex 156.6513164409938 358.89782909954056 8.362543096850107
  endloop
endfacet
facet normal -0.5224985647159608 -0.8526401643540851 -5.075786948813121e-17
  outer loop
    vertex 154.70885939462588 359.88756039921486 9.862543096850352
    vertex 154.70885939462588 359.88756039921486 8.362543096850107
    vertex 155.64114114651878 359.3162574068864 9.862543096850352
  endloop
endfacet
facet normal -0.5224985647159608 -0.8526401643540851 -5.075786948813121e-17
  outer loop
    vertex 155.64114114651878 359.3162574068864 8.362543096850107
    vertex 155.64114114651878 359.3162574068864 9.862543096850352
    vertex 154.70885939462588 359.88756039921486 8.362543096850107
  endloop
endfacet
facet normal 0.9969173337331281 0.07845909572784511 9.684505053737966e-17
  outer loop
    vertex 165.77254603698063 365.52479030872615 8.362543096850109
    vertex 165.68675840196755 366.61482556303446 8.362543096850109
    vertex 165.77254603698063 365.52479030872615 9.862543096850354
  endloop
endfacet
facet normal 0.9969173337331281 0.07845909572784511 9.684505053737966e-17
  outer loop
    vertex 165.68675840196755 366.61482556303446 9.862543096850354
    vertex 165.77254603698063 365.52479030872615 9.862543096850354
    vertex 165.68675840196755 366.61482556303446 8.362543096850109
  endloop
endfacet
facet normal -0.6494480483301506 -0.7604059656000591 -6.309031545830479e-17
  outer loop
    vertex 153.87742705611242 360.59767070080886 9.862543096850352
    vertex 153.87742705611242 360.59767070080886 8.362543096850107
    vertex 154.70885939462588 359.88756039921486 9.862543096850352
  endloop
endfacet
facet normal -0.6494480483301506 -0.7604059656000591 -6.309031545830479e-17
  outer loop
    vertex 154.70885939462588 359.88756039921486 8.362543096850107
    vertex 154.70885939462588 359.88756039921486 9.862543096850352
    vertex 153.87742705611242 360.59767070080886 8.362543096850107
  endloop
endfacet
facet normal 0.07845909572780732 -0.9969173337331311 7.621870761839893e-18
  outer loop
    vertex 158.80454666402966 358.55679093577515 9.862543096850354
    vertex 158.80454666402966 358.55679093577515 8.362543096850107
    vertex 159.8945819183379 358.6425785707882 9.862543096850354
  endloop
endfacet
facet normal 0.07845909572780732 -0.9969173337331311 7.621870761839893e-18
  outer loop
    vertex 159.8945819183379 358.6425785707882 8.362543096850109
    vertex 159.8945819183379 358.6425785707882 9.862543096850354
    vertex 158.80454666402966 358.55679093577515 8.362543096850107
  endloop
endfacet
facet normal -0.7604059656000446 -0.6494480483301678 -7.386926847715126e-17
  outer loop
    vertex 153.1673167545183 361.4291030393224 8.362543096850107
    vertex 153.87742705611242 360.59767070080886 8.362543096850107
    vertex 153.1673167545183 361.4291030393224 9.862543096850352
  endloop
endfacet
facet normal -0.7604059656000446 -0.6494480483301678 -7.386926847715126e-17
  outer loop
    vertex 153.87742705611242 360.59767070080886 9.862543096850352
    vertex 153.1673167545183 361.4291030393224 9.862543096850352
    vertex 153.87742705611242 360.59767070080886 8.362543096850107
  endloop
endfacet
facet normal -0.852640164354083 -0.5224985647159641 -8.282931494803696e-17
  outer loop
    vertex 152.59601376218987 362.36138479121524 8.362543096850107
    vertex 153.1673167545183 361.4291030393224 8.362543096850107
    vertex 152.59601376218987 362.36138479121524 9.862543096850352
  endloop
endfacet
facet normal -0.852640164354083 -0.5224985647159641 -8.282931494803696e-17
  outer loop
    vertex 153.1673167545183 361.4291030393224 9.862543096850352
    vertex 152.59601376218987 362.36138479121524 9.862543096850352
    vertex 153.1673167545183 361.4291030393224 8.362543096850107
  endloop
endfacet
facet normal -0.38268343236512004 -0.9238795325112743 -3.7175596315446426e-17
  outer loop
    vertex 155.64114114651878 359.3162574068864 9.862543096850352
    vertex 155.64114114651878 359.3162574068864 8.362543096850107
    vertex 156.6513164409938 358.89782909954056 9.862543096850352
  endloop
endfacet
facet normal -0.38268343236512004 -0.9238795325112743 -3.7175596315446426e-17
  outer loop
    vertex 156.6513164409938 358.89782909954056 8.362543096850107
    vertex 156.6513164409938 358.89782909954056 9.862543096850352
    vertex 155.64114114651878 359.3162574068864 8.362543096850107
  endloop
endfacet
facet normal -9.714451465470329e-17 -1.2924697071193955e-26 1.0
  outer loop
    vertex 158.80454666402966 358.55679093577515 9.862543096850354
    vertex 159.8945819183379 358.6425785707882 9.862543096850354
    vertex 157.7145114097214 358.6425785707882 9.862543096850352
  endloop
endfacet
facet normal -9.714451465470329e-17 -1.2924697071193955e-26 1.0
  outer loop
    vertex 156.6513164409938 358.89782909954056 9.862543096850352
    vertex 157.7145114097214 358.6425785707882 9.862543096850352
    vertex 159.8945819183379 358.6425785707882 9.862543096850354
  endloop
endfacet
facet normal -9.714451465470329e-17 -1.2924697071193955e-26 1.0
  outer loop
    vertex 160.95777688706548 358.89782909954056 9.862543096850354
    vertex 156.6513164409938 358.89782909954056 9.862543096850352
    vertex 159.8945819183379 358.6425785707882 9.862543096850354
  endloop
endfacet
facet normal -9.714451465470329e-17 -1.2924697071193955e-26 1.0
  outer loop
    vertex 155.64114114651878 359.3162574068864 9.862543096850352
    vertex 156.6513164409938 358.89782909954056 9.862543096850352
    vertex 160.95777688706548 358.89782909954056 9.862543096850354
  endloop
endfacet
facet normal -9.714451465470329e-17 -1.2924697071193955e-26 1.0
  outer loop
    vertex 161.9679521815405 359.3162574068864 9.862543096850354
    vertex 155.64114114651878 359.3162574068864 9.862543096850352
    vertex 160.95777688706548 358.89782909954056 9.862543096850354
  endloop
endfacet
facet normal -9.714451465470329e-17 -1.2924697071193955e-26 1.0
  outer loop
    vertex 154.70885939462588 359.88756039921486 9.862543096850352
    vertex 155.64114114651878 359.3162574068864 9.862543096850352
    vertex 161.9679521815405 359.3162574068864 9.862543096850354
  endloop
endfacet
facet normal -9.714451465470329e-17 -1.2924697071193955e-26 1.0
  outer loop
    vertex 162.90023393343344 359.88756039921486 9.862543096850354
    vertex 154.70885939462588 359.88756039921486 9.862543096850352
    vertex 161.9679521815405 359.3162574068864 9.862543096850354
  endloop
endfacet
facet normal -9.714451465470329e-17 -1.2924697071193955e-26 1.0
  outer loop
    vertex 153.87742705611242 360.59767070080886 9.862543096850352
    vertex 154.70885939462588 359.88756039921486 9.862543096850352
    vertex 162.90023393343344 359.88756039921486 9.862543096850354
  endloop
endfacet
facet normal -9.714451465470329e-17 -1.2924697071193955e-26 1.0
  outer loop
    vertex 163.7316662719469 360.59767070080886 9.862543096850354
    vertex 153.87742705611242 360.59767070080886 9.862543096850352
    vertex 162.90023393343344 359.88756039921486 9.862543096850354
  endloop
endfacet
facet normal -9.714451465470329e-17 -1.2924697071193955e-26 1.0
  outer loop
    vertex 153.1673167545183 361.4291030393224 9.862543096850352
    vertex 153.87742705611242 360.59767070080886 9.862543096850352
    vertex 163.7316662719469 360.59767070080886 9.862543096850354
  endloop
endfacet
facet normal -9.714451465470329e-17 -1.2924697071193955e-26 1.0
  outer loop
    vertex 164.44177657354098 361.4291030393224 9.862543096850354
    vertex 153.1673167545183 361.4291030393224 9.862543096850352
    vertex 163.7316662719469 360.59767070080886 9.862543096850354
  endloop
endfacet
facet normal -9.714451465470329e-17 -1.2924697071193955e-26 1.0
  outer loop
    vertex 152.59601376218987 362.36138479121524 9.862543096850352
    vertex 153.1673167545183 361.4291030393224 9.862543096850352
    vertex 164.44177657354098 361.4291030393224 9.862543096850354
  endloop
endfacet
facet normal -9.714451465470329e-17 -1.2924697071193955e-26 1.0
  outer loop
    vertex 165.01307956586942 362.36138479121524 9.862543096850354
    vertex 152.59601376218987 362.36138479121524 9.862543096850352
    vertex 164.44177657354098 361.4291030393224 9.862543096850354
  endloop
endfacet
facet normal -9.714451465470329e-17 -1.2924697071193955e-26 1.0
  outer loop
    vertex 152.1775854548441 363.37156008569036 9.862543096850352
    vertex 152.59601376218987 362.36138479121524 9.862543096850352
    vertex 165.01307956586942 362.36138479121524 9.862543096850354
  endloop
endfacet
facet normal -9.714451465470329e-17 -1.2924697071193955e-26 1.0
  outer loop
    vertex 165.4315078732152 363.37156008569036 9.862543096850354
    vertex 152.1775854548441 363.37156008569036 9.862543096850352
    vertex 165.01307956586942 362.36138479121524 9.862543096850354
  endloop
endfacet
facet normal -9.714451465470329e-17 -1.2924697071193955e-26 1.0
  outer loop
    vertex 151.92233492609174 364.43475505441785 9.862543096850352
    vertex 152.1775854548441 363.37156008569036 9.862543096850352
    vertex 165.4315078732152 363.37156008569036 9.862543096850354
  endloop
endfacet
facet normal -9.714451465470329e-17 -1.2924697071193955e-26 1.0
  outer loop
    vertex 158.80454666402966 363.92479030872613 9.862543096850354
    vertex 151.92233492609174 364.43475505441785 9.862543096850352
    vertex 165.4315078732152 363.37156008569036 9.862543096850354
  endloop
endfacet
facet normal -9.714451465470329e-17 -1.2924697071193955e-26 1.0
  outer loop
    vertex 158.3904361918656 363.9793089866637 9.862543096850354
    vertex 151.92233492609174 364.43475505441785 9.862543096850352
    vertex 158.80454666402966 363.92479030872613 9.862543096850354
  endloop
endfacet
facet normal -9.714451465470329e-17 -1.2924697071193955e-26 1.0
  outer loop
    vertex 158.00454666402965 364.139149662671 9.862543096850352
    vertex 151.92233492609174 364.43475505441785 9.862543096850352
    vertex 158.3904361918656 363.9793089866637 9.862543096850354
  endloop
endfacet
facet normal -9.714451465470329e-17 -1.2924697071193955e-26 1.0
  outer loop
    vertex 157.67317581413118 364.3934194588276 9.862543096850352
    vertex 151.92233492609174 364.43475505441785 9.862543096850352
    vertex 158.00454666402965 364.139149662671 9.862543096850352
  endloop
endfacet
facet normal -9.714451465470329e-17 -1.2924697071193955e-26 1.0
  outer loop
    vertex 157.41890601797454 364.72479030872614 9.862543096850352
    vertex 151.92233492609174 364.43475505441785 9.862543096850352
    vertex 157.67317581413118 364.3934194588276 9.862543096850352
  endloop
endfacet
facet normal -9.714451465470329e-17 -1.2924697071193955e-26 1.0
  outer loop
    vertex 151.8365472910787 365.52479030872615 9.862543096850352
    vertex 151.92233492609174 364.43475505441785 9.862543096850352
    vertex 157.41890601797454 364.72479030872614 9.862543096850352
  endloop
endfacet
facet normal -9.714451465470329e-17 -1.2924697071193955e-26 1.0
  outer loop
    vertex 157.25906534196716 365.1106798365621 9.862543096850352
    vertex 151.8365472910787 365.52479030872615 9.862543096850352
    vertex 157.41890601797454 364.72479030872614 9.862543096850352
  endloop
endfacet
facet normal -9.714451465470329e-17 -1.2924697071193955e-26 1.0
  outer loop
    vertex 157.20454666402964 365.52479030872615 9.862543096850352
    vertex 151.8365472910787 365.52479030872615 9.862543096850352
    vertex 157.25906534196716 365.1106798365621 9.862543096850352
  endloop
endfacet
facet normal -9.714451465470329e-17 -1.2924697071193955e-26 1.0
  outer loop
    vertex 151.92233492609174 366.61482556303446 9.862543096850352
    vertex 151.8365472910787 365.52479030872615 9.862543096850352
    vertex 157.20454666402964 365.52479030872615 9.862543096850352
  endloop
endfacet
facet normal -9.714451465470329e-17 -1.2924697071193955e-26 1.0
  outer loop
    vertex 157.25906534196716 365.9389007808902 9.862543096850352
    vertex 151.92233492609174 366.61482556303446 9.862543096850352
    vertex 157.20454666402964 365.52479030872615 9.862543096850352
  endloop
endfacet
facet normal -9.714451465470329e-17 -1.2924697071193955e-26 1.0
  outer loop
    vertex 157.41890601797454 366.32479030872616 9.862543096850352
    vertex 151.92233492609174 366.61482556303446 9.862543096850352
    vertex 157.25906534196716 365.9389007808902 9.862543096850352
  endloop
endfacet
facet normal -9.714451465470329e-17 -1.2924697071193955e-26 1.0
  outer loop
    vertex 157.67317581413118 366.6561611586247 9.862543096850352
    vertex 151.92233492609174 366.61482556303446 9.862543096850352
    vertex 157.41890601797454 366.32479030872616 9.862543096850352
  endloop
endfacet
facet normal -9.714451465470329e-17 -1.2924697071193955e-26 1.0
  outer loop
    vertex 152.1775854548441 367.67802053176194 9.862543096850352
    vertex 151.92233492609174 366.61482556303446 9.862543096850352
    vertex 157.67317581413118 366.6561611586247 9.862543096850352
  endloop
endfacet
facet normal -9.714451465470329e-17 -1.2924697071193955e-26 1.0
  outer loop
    vertex 158.00454666402965 366.91043095478125 9.862543096850352
    vertex 152.1775854548441 367.67802053176194 9.862543096850352
    vertex 157.67317581413118 366.6561611586247 9.862543096850352
  endloop
endfacet
facet normal -9.714451465470329e-17 -1.2924697071193955e-26 1.0
  outer loop
    vertex 158.3904361918656 367.0702716307886 9.862543096850354
    vertex 152.1775854548441 367.67802053176194 9.862543096850352
    vertex 158.00454666402965 366.91043095478125 9.862543096850352
  endloop
endfacet
facet normal -9.714451465470329e-17 -1.2924697071193955e-26 1.0
  outer loop
    vertex 158.80454666402966 367.1247903087261 9.862543096850354
    vertex 152.1775854548441 367.67802053176194 9.862543096850352
    vertex 158.3904361918656 367.0702716307886 9.862543096850354
  endloop
endfacet
facet normal -9.714451465470329e-17 -1.2924697071193955e-26 1.0
  outer loop
    vertex 165.4315078732152 363.37156008569036 9.862543096850354
    vertex 165.68675840196755 364.43475505441785 9.862543096850354
    vertex 158.80454666402966 363.92479030872613 9.862543096850354
  endloop
endfacet
facet normal -9.714451465470329e-17 -1.2924697071193955e-26 1.0
  outer loop
    vertex 159.21865713619368 363.9793089866637 9.862543096850354
    vertex 158.80454666402966 363.92479030872613 9.862543096850354
    vertex 165.68675840196755 364.43475505441785 9.862543096850354
  endloop
endfacet
facet normal -9.714451465470329e-17 -1.2924697071193955e-26 1.0
  outer loop
    vertex 159.60454666402964 364.139149662671 9.862543096850354
    vertex 159.21865713619368 363.9793089866637 9.862543096850354
    vertex 165.68675840196755 364.43475505441785 9.862543096850354
  endloop
endfacet
facet normal -9.714451465470329e-17 -1.2924697071193955e-26 1.0
  outer loop
    vertex 159.9359175139281 364.3934194588276 9.862543096850354
    vertex 159.60454666402964 364.139149662671 9.862543096850354
    vertex 165.68675840196755 364.43475505441785 9.862543096850354
  endloop
endfacet
facet normal -9.714451465470329e-17 -1.2924697071193955e-26 1.0
  outer loop
    vertex 160.19018731008475 364.72479030872614 9.862543096850354
    vertex 159.9359175139281 364.3934194588276 9.862543096850354
    vertex 165.68675840196755 364.43475505441785 9.862543096850354
  endloop
endfacet
facet normal -9.714451465470329e-17 -1.2924697071193955e-26 1.0
  outer loop
    vertex 165.77254603698063 365.52479030872615 9.862543096850354
    vertex 160.19018731008475 364.72479030872614 9.862543096850354
    vertex 165.68675840196755 364.43475505441785 9.862543096850354
  endloop
endfacet
facet normal -9.714451465470329e-17 -1.2924697071193955e-26 1.0
  outer loop
    vertex 160.35002798609216 365.1106798365621 9.862543096850354
    vertex 160.19018731008475 364.72479030872614 9.862543096850354
    vertex 165.77254603698063 365.52479030872615 9.862543096850354
  endloop
endfacet
facet normal -9.714451465470329e-17 -1.2924697071193955e-26 1.0
  outer loop
    vertex 160.40454666402965 365.52479030872615 9.862543096850354
    vertex 160.35002798609216 365.1106798365621 9.862543096850354
    vertex 165.77254603698063 365.52479030872615 9.862543096850354
  endloop
endfacet
facet normal -9.714451465470329e-17 -1.2924697071193955e-26 1.0
  outer loop
    vertex 160.35002798609216 365.9389007808902 9.862543096850354
    vertex 160.40454666402965 365.52479030872615 9.862543096850354
    vertex 165.77254603698063 365.52479030872615 9.862543096850354
  endloop
endfacet
facet normal -9.714451465470329e-17 -1.2924697071193955e-26 1.0
  outer loop
    vertex 165.68675840196755 366.61482556303446 9.862543096850354
    vertex 160.35002798609216 365.9389007808902 9.862543096850354
    vertex 165.77254603698063 365.52479030872615 9.862543096850354
  endloop
endfacet
facet normal -9.714451465470329e-17 -1.2924697071193955e-26 1.0
  outer loop
    vertex 160.19018731008475 366.32479030872616 9.862543096850354
    vertex 160.35002798609216 365.9389007808902 9.862543096850354
    vertex 165.68675840196755 366.61482556303446 9.862543096850354
  endloop
endfacet
facet normal -9.714451465470329e-17 -1.2924697071193955e-26 1.0
  outer loop
    vertex 159.9359175139281 366.6561611586247 9.862543096850354
    vertex 160.19018731008475 366.32479030872616 9.862543096850354
    vertex 165.68675840196755 366.61482556303446 9.862543096850354
  endloop
endfacet
facet normal -9.714451465470329e-17 -1.2924697071193955e-26 1.0
  outer loop
    vertex 165.4315078732152 367.67802053176194 9.862543096850354
    vertex 159.9359175139281 366.6561611586247 9.862543096850354
    vertex 165.68675840196755 366.61482556303446 9.862543096850354
  endloop
endfacet
facet normal -9.714451465470329e-17 -1.2924697071193955e-26 1.0
  outer loop
    vertex 159.60454666402964 366.91043095478125 9.862543096850354
    vertex 159.9359175139281 366.6561611586247 9.862543096850354
    vertex 165.4315078732152 367.67802053176194 9.862543096850354
  endloop
endfacet
facet normal -9.714451465470329e-17 -1.2924697071193955e-26 1.0
  outer loop
    vertex 159.21865713619368 367.0702716307886 9.862543096850354
    vertex 159.60454666402964 366.91043095478125 9.862543096850354
    vertex 165.4315078732152 367.67802053176194 9.862543096850354
  endloop
endfacet
facet normal -9.714451465470329e-17 -1.2924697071193955e-26 1.0
  outer loop
    vertex 158.80454666402966 367.1247903087261 9.862543096850354
    vertex 159.21865713619368 367.0702716307886 9.862543096850354
    vertex 165.4315078732152 367.67802053176194 9.862543096850354
  endloop
endfacet
facet normal -9.714451465470329e-17 -1.2924697071193955e-26 1.0
  outer loop
    vertex 152.1775854548441 367.67802053176194 9.862543096850352
    vertex 158.80454666402966 367.1247903087261 9.862543096850354
    vertex 165.4315078732152 367.67802053176194 9.862543096850354
  endloop
endfacet
facet normal -9.714451465470329e-17 -1.2924697071193955e-26 1.0
  outer loop
    vertex 152.59601376218987 368.688195826237 9.862543096850352
    vertex 152.1775854548441 367.67802053176194 9.862543096850352
    vertex 165.4315078732152 367.67802053176194 9.862543096850354
  endloop
endfacet
facet normal -9.714451465470329e-17 -1.2924697071193955e-26 1.0
  outer loop
    vertex 165.01307956586942 368.688195826237 9.862543096850354
    vertex 152.59601376218987 368.688195826237 9.862543096850352
    vertex 165.4315078732152 367.67802053176194 9.862543096850354
  endloop
endfacet
facet normal -9.714451465470329e-17 -1.2924697071193955e-26 1.0
  outer loop
    vertex 153.1673167545183 369.6204775781299 9.862543096850352
    vertex 152.59601376218987 368.688195826237 9.862543096850352
    vertex 165.01307956586942 368.688195826237 9.862543096850354
  endloop
endfacet
facet normal -9.714451465470329e-17 -1.2924697071193955e-26 1.0
  outer loop
    vertex 164.44177657354098 369.6204775781299 9.862543096850354
    vertex 153.1673167545183 369.6204775781299 9.862543096850352
    vertex 165.01307956586942 368.688195826237 9.862543096850354
  endloop
endfacet
facet normal -9.714451465470329e-17 -1.2924697071193955e-26 1.0
  outer loop
    vertex 153.87742705611242 370.45190991664344 9.862543096850352
    vertex 153.1673167545183 369.6204775781299 9.862543096850352
    vertex 164.44177657354098 369.6204775781299 9.862543096850354
  endloop
endfacet
facet normal -9.714451465470329e-17 -1.2924697071193955e-26 1.0
  outer loop
    vertex 163.7316662719469 370.45190991664344 9.862543096850354
    vertex 153.87742705611242 370.45190991664344 9.862543096850352
    vertex 164.44177657354098 369.6204775781299 9.862543096850354
  endloop
endfacet
facet normal -9.714451465470329e-17 -1.2924697071193955e-26 1.0
  outer loop
    vertex 154.70885939462588 371.16202021823744 9.862543096850352
    vertex 153.87742705611242 370.45190991664344 9.862543096850352
    vertex 163.7316662719469 370.45190991664344 9.862543096850354
  endloop
endfacet
facet normal -9.714451465470329e-17 -1.2924697071193955e-26 1.0
  outer loop
    vertex 162.90023393343344 371.16202021823744 9.862543096850354
    vertex 154.70885939462588 371.16202021823744 9.862543096850352
    vertex 163.7316662719469 370.45190991664344 9.862543096850354
  endloop
endfacet
facet normal -9.714451465470329e-17 -1.2924697071193955e-26 1.0
  outer loop
    vertex 155.64114114651878 371.7333232105659 9.862543096850352
    vertex 154.70885939462588 371.16202021823744 9.862543096850352
    vertex 162.90023393343344 371.16202021823744 9.862543096850354
  endloop
endfacet
facet normal -9.714451465470329e-17 -1.2924697071193955e-26 1.0
  outer loop
    vertex 161.9679521815405 371.7333232105659 9.862543096850354
    vertex 155.64114114651878 371.7333232105659 9.862543096850352
    vertex 162.90023393343344 371.16202021823744 9.862543096850354
  endloop
endfacet
facet normal -9.714451465470329e-17 -1.2924697071193955e-26 1.0
  outer loop
    vertex 156.6513164409938 372.15175151791175 9.862543096850352
    vertex 155.64114114651878 371.7333232105659 9.862543096850352
    vertex 161.9679521815405 371.7333232105659 9.862543096850354
  endloop
endfacet
facet normal -9.714451465470329e-17 -1.2924697071193955e-26 1.0
  outer loop
    vertex 160.95777688706548 372.15175151791175 9.862543096850354
    vertex 156.6513164409938 372.15175151791175 9.862543096850352
    vertex 161.9679521815405 371.7333232105659 9.862543096850354
  endloop
endfacet
facet normal -9.714451465470329e-17 -1.2924697071193955e-26 1.0
  outer loop
    vertex 157.7145114097214 372.4070020466641 9.862543096850352
    vertex 156.6513164409938 372.15175151791175 9.862543096850352
    vertex 160.95777688706548 372.15175151791175 9.862543096850354
  endloop
endfacet
facet normal -9.714451465470329e-17 -1.2924697071193955e-26 1.0
  outer loop
    vertex 159.8945819183379 372.4070020466641 9.862543096850354
    vertex 157.7145114097214 372.4070020466641 9.862543096850352
    vertex 160.95777688706548 372.15175151791175 9.862543096850354
  endloop
endfacet
facet normal -9.714451465470329e-17 -1.2924697071193955e-26 1.0
  outer loop
    vertex 158.80454666402966 372.4927896816771 9.862543096850354
    vertex 157.7145114097214 372.4070020466641 9.862543096850352
    vertex 159.8945819183379 372.4070020466641 9.862543096850354
  endloop
endfacet
facet normal 0.38268343236512004 -0.9238795325112743 3.71755962915647e-17
  outer loop
    vertex 160.95777688706548 358.89782909954056 9.862543096850354
    vertex 160.95777688706548 358.89782909954056 8.362543096850109
    vertex 161.9679521815405 359.3162574068864 9.862543096850354
  endloop
endfacet
facet normal 0.38268343236512004 -0.9238795325112743 3.71755962915647e-17
  outer loop
    vertex 161.9679521815405 359.3162574068864 8.362543096850109
    vertex 161.9679521815405 359.3162574068864 9.862543096850354
    vertex 160.95777688706548 358.89782909954056 8.362543096850109
  endloop
endfacet
facet normal -0.923879532511298 -0.3826834323650629 -8.974982879017029e-17
  outer loop
    vertex 152.1775854548441 363.37156008569036 8.362543096850107
    vertex 152.59601376218987 362.36138479121524 8.362543096850107
    vertex 152.1775854548441 363.37156008569036 9.862543096850352
  endloop
endfacet
facet normal -0.923879532511298 -0.3826834323650629 -8.974982879017029e-17
  outer loop
    vertex 152.59601376218987 362.36138479121524 9.862543096850352
    vertex 152.1775854548441 363.37156008569036 9.862543096850352
    vertex 152.59601376218987 362.36138479121524 8.362543096850107
  endloop
endfacet
facet normal -0.9723699203976723 -0.2334453638559232 -9.446040398488157e-17
  outer loop
    vertex 151.92233492609174 364.43475505441785 8.362543096850107
    vertex 152.1775854548441 363.37156008569036 8.362543096850107
    vertex 151.92233492609174 364.43475505441785 9.862543096850352
  endloop
endfacet
facet normal -0.9723699203976723 -0.2334453638559232 -9.446040398488157e-17
  outer loop
    vertex 152.1775854548441 363.37156008569036 9.862543096850352
    vertex 151.92233492609174 364.43475505441785 9.862543096850352
    vertex 152.1775854548441 363.37156008569036 8.362543096850107
  endloop
endfacet
facet normal 0.852640164354083 0.5224985647159641 8.282931494803696e-17
  outer loop
    vertex 165.01307956586942 368.688195826237 8.362543096850109
    vertex 164.44177657354098 369.6204775781299 8.362543096850109
    vertex 165.01307956586942 368.688195826237 9.862543096850354
  endloop
endfacet
facet normal 0.852640164354083 0.5224985647159641 8.282931494803696e-17
  outer loop
    vertex 164.44177657354098 369.6204775781299 9.862543096850354
    vertex 165.01307956586942 368.688195826237 9.862543096850354
    vertex 164.44177657354098 369.6204775781299 8.362543096850109
  endloop
endfacet
facet normal 0.07845909572780732 0.9969173337331311 7.621870787609601e-18
  outer loop
    vertex 158.80454666402966 372.4927896816771 8.362543096850107
    vertex 158.80454666402966 372.4927896816771 9.862543096850354
    vertex 159.8945819183379 372.4070020466641 8.362543096850109
  endloop
endfacet
facet normal 0.07845909572780732 0.9969173337331311 7.621870787609601e-18
  outer loop
    vertex 159.8945819183379 372.4070020466641 9.862543096850354
    vertex 159.8945819183379 372.4070020466641 8.362543096850109
    vertex 158.80454666402966 372.4927896816771 9.862543096850354
  endloop
endfacet
facet normal 0.9969173337331281 -0.07845909572784511 9.684505053535153e-17
  outer loop
    vertex 165.68675840196755 364.43475505441785 8.362543096850109
    vertex 165.77254603698063 365.52479030872615 8.362543096850109
    vertex 165.68675840196755 364.43475505441785 9.862543096850354
  endloop
endfacet
facet normal 0.9969173337331281 -0.07845909572784511 9.684505053535153e-17
  outer loop
    vertex 165.77254603698063 365.52479030872615 9.862543096850354
    vertex 165.68675840196755 364.43475505441785 9.862543096850354
    vertex 165.77254603698063 365.52479030872615 8.362543096850109
  endloop
endfacet
facet normal 0.6494480483301506 -0.7604059656000591 6.309031543864875e-17
  outer loop
    vertex 162.90023393343344 359.88756039921486 9.862543096850354
    vertex 162.90023393343344 359.88756039921486 8.362543096850109
    vertex 163.7316662719469 360.59767070080886 9.862543096850354
  endloop
endfacet
facet normal 0.6494480483301506 -0.7604059656000591 6.309031543864875e-17
  outer loop
    vertex 163.7316662719469 360.59767070080886 8.362543096850109
    vertex 163.7316662719469 360.59767070080886 9.862543096850354
    vertex 162.90023393343344 359.88756039921486 8.362543096850109
  endloop
endfacet
facet normal 0.923879532511298 0.3826834323650629 8.974982879017029e-17
  outer loop
    vertex 165.4315078732152 367.67802053176194 8.362543096850109
    vertex 165.01307956586942 368.688195826237 8.362543096850109
    vertex 165.4315078732152 367.67802053176194 9.862543096850354
  endloop
endfacet
facet normal 0.923879532511298 0.3826834323650629 8.974982879017029e-17
  outer loop
    vertex 165.01307956586942 368.688195826237 9.862543096850354
    vertex 165.4315078732152 367.67802053176194 9.862543096850354
    vertex 165.01307956586942 368.688195826237 8.362543096850109
  endloop
endfacet
facet normal 0.5224985647159608 0.8526401643540851 5.075786948813121e-17
  outer loop
    vertex 161.9679521815405 371.7333232105659 8.362543096850109
    vertex 161.9679521815405 371.7333232105659 9.862543096850354
    vertex 162.90023393343344 371.16202021823744 8.362543096850109
  endloop
endfacet
facet normal 0.5224985647159608 0.8526401643540851 5.075786948813121e-17
  outer loop
    vertex 162.90023393343344 371.16202021823744 9.862543096850354
    vertex 162.90023393343344 371.16202021823744 8.362543096850109
    vertex 161.9679521815405 371.7333232105659 9.862543096850354
  endloop
endfacet
facet normal -0.07845909572780732 -0.9969173337331311 -7.621870787609601e-18
  outer loop
    vertex 157.7145114097214 358.6425785707882 9.862543096850352
    vertex 157.7145114097214 358.6425785707882 8.362543096850107
    vertex 158.80454666402966 358.55679093577515 9.862543096850354
  endloop
endfacet
facet normal -0.07845909572780732 -0.9969173337331311 -7.621870787609601e-18
  outer loop
    vertex 158.80454666402966 358.55679093577515 8.362543096850107
    vertex 158.80454666402966 358.55679093577515 9.862543096850354
    vertex 157.7145114097214 358.6425785707882 8.362543096850107
  endloop
endfacet
facet normal -0.9723699203976723 0.2334453638559232 -9.446040397884714e-17
  outer loop
    vertex 152.1775854548441 367.67802053176194 8.362543096850107
    vertex 151.92233492609174 366.61482556303446 8.362543096850107
    vertex 152.1775854548441 367.67802053176194 9.862543096850352
  endloop
endfacet
facet normal -0.9723699203976723 0.2334453638559232 -9.446040397884714e-17
  outer loop
    vertex 151.92233492609174 366.61482556303446 9.862543096850352
    vertex 152.1775854548441 367.67802053176194 9.862543096850352
    vertex 151.92233492609174 366.61482556303446 8.362543096850107
  endloop
endfacet
facet normal -0.3826834323649715 -0.9238795325113359 -3.7175596315431986e-17
  outer loop
    vertex 159.21865713619368 367.0702716307886 9.862543096850354
    vertex 159.21865713619368 367.0702716307886 8.362543096850109
    vertex 159.60454666402964 366.91043095478125 9.862543096850354
  endloop
endfacet
facet normal -0.3826834323649715 -0.9238795325113359 -3.7175596315431986e-17
  outer loop
    vertex 159.60454666402964 366.91043095478125 8.362543096850109
    vertex 159.60454666402964 366.91043095478125 9.862543096850354
    vertex 159.21865713619368 367.0702716307886 8.362543096850109
  endloop
endfacet
facet normal -0.9969173337331281 0.07845909572784511 -9.684505053535153e-17
  outer loop
    vertex 151.92233492609174 366.61482556303446 8.362543096850107
    vertex 151.8365472910787 365.52479030872615 8.362543096850107
    vertex 151.92233492609174 366.61482556303446 9.862543096850352
  endloop
endfacet
facet normal -0.9969173337331281 0.07845909572784511 -9.684505053535153e-17
  outer loop
    vertex 151.8365472910787 365.52479030872615 9.862543096850352
    vertex 151.92233492609174 366.61482556303446 9.862543096850352
    vertex 151.8365472910787 365.52479030872615 8.362543096850107
  endloop
endfacet
facet normal -0.9969173337331281 -0.07845909572784511 -9.684505053737966e-17
  outer loop
    vertex 151.8365472910787 365.52479030872615 8.362543096850107
    vertex 151.92233492609174 364.43475505441785 8.362543096850107
    vertex 151.8365472910787 365.52479030872615 9.862543096850352
  endloop
endfacet
facet normal -0.9969173337331281 -0.07845909572784511 -9.684505053737966e-17
  outer loop
    vertex 151.92233492609174 364.43475505441785 9.862543096850352
    vertex 151.8365472910787 365.52479030872615 9.862543096850352
    vertex 151.92233492609174 364.43475505441785 8.362543096850107
  endloop
endfacet
facet normal 0.13052619222011586 -0.991444861373802 1.2679903580135539e-17
  outer loop
    vertex 158.3904361918656 367.0702716307886 9.862543096850354
    vertex 158.3904361918656 367.0702716307886 8.362543096850107
    vertex 158.80454666402966 367.1247903087261 9.862543096850354
  endloop
endfacet
facet normal 0.13052619222011586 -0.991444861373802 1.2679903580135539e-17
  outer loop
    vertex 158.80454666402966 367.1247903087261 8.362543096850107
    vertex 158.80454666402966 367.1247903087261 9.862543096850354
    vertex 158.3904361918656 367.0702716307886 8.362543096850107
  endloop
endfacet
facet normal -0.5224985647159608 0.8526401643540851 -5.0757869466090976e-17
  outer loop
    vertex 154.70885939462588 371.16202021823744 8.362543096850107
    vertex 154.70885939462588 371.16202021823744 9.862543096850352
    vertex 155.64114114651878 371.7333232105659 8.362543096850107
  endloop
endfacet
facet normal -0.5224985647159608 0.8526401643540851 -5.0757869466090976e-17
  outer loop
    vertex 155.64114114651878 371.7333232105659 9.862543096850352
    vertex 155.64114114651878 371.7333232105659 8.362543096850107
    vertex 154.70885939462588 371.16202021823744 9.862543096850352
  endloop
endfacet
facet normal 0.9238795325112896 -0.38268343236508273 8.974982878027733e-17
  outer loop
    vertex 157.25906534196716 365.9389007808902 8.362543096850107
    vertex 157.41890601797454 366.32479030872616 8.362543096850107
    vertex 157.25906534196716 365.9389007808902 9.862543096850352
  endloop
endfacet
facet normal 0.9238795325112896 -0.38268343236508273 8.974982878027733e-17
  outer loop
    vertex 157.41890601797454 366.32479030872616 9.862543096850352
    vertex 157.25906534196716 365.9389007808902 9.862543096850352
    vertex 157.41890601797454 366.32479030872616 8.362543096850107
  endloop
endfacet
facet normal 0.7933533402912577 -0.6087614290086913 7.706992518441383e-17
  outer loop
    vertex 157.41890601797454 366.32479030872616 8.362543096850107
    vertex 157.67317581413118 366.6561611586247 8.362543096850107
    vertex 157.41890601797454 366.32479030872616 9.862543096850352
  endloop
endfacet
facet normal 0.7933533402912577 -0.6087614290086913 7.706992518441383e-17
  outer loop
    vertex 157.67317581413118 366.6561611586247 9.862543096850352
    vertex 157.41890601797454 366.32479030872616 9.862543096850352
    vertex 157.67317581413118 366.6561611586247 8.362543096850107
  endloop
endfacet
facet normal -0.923879532511298 0.3826834323650629 -8.974982878027814e-17
  outer loop
    vertex 152.59601376218987 368.688195826237 8.362543096850107
    vertex 152.1775854548441 367.67802053176194 8.362543096850107
    vertex 152.59601376218987 368.688195826237 9.862543096850352
  endloop
endfacet
facet normal -0.923879532511298 0.3826834323650629 -8.974982878027814e-17
  outer loop
    vertex 152.1775854548441 367.67802053176194 9.862543096850352
    vertex 152.59601376218987 368.688195826237 9.862543096850352
    vertex 152.1775854548441 367.67802053176194 8.362543096850107
  endloop
endfacet
facet normal 0.9238795325112896 0.38268343236508273 8.974982879016947e-17
  outer loop
    vertex 157.41890601797454 364.72479030872614 8.362543096850107
    vertex 157.25906534196716 365.1106798365621 8.362543096850107
    vertex 157.41890601797454 364.72479030872614 9.862543096850352
  endloop
endfacet
facet normal 0.9238795325112896 0.38268343236508273 8.974982879016947e-17
  outer loop
    vertex 157.25906534196716 365.1106798365621 9.862543096850352
    vertex 157.41890601797454 364.72479030872614 9.862543096850352
    vertex 157.25906534196716 365.1106798365621 8.362543096850107
  endloop
endfacet
facet normal 0.7933533402912577 0.6087614290086913 7.706992520014995e-17
  outer loop
    vertex 157.67317581413118 364.3934194588276 8.362543096850107
    vertex 157.41890601797454 364.72479030872614 8.362543096850107
    vertex 157.67317581413118 364.3934194588276 9.862543096850352
  endloop
endfacet
facet normal 0.7933533402912577 0.6087614290086913 7.706992520014995e-17
  outer loop
    vertex 157.41890601797454 364.72479030872614 9.862543096850352
    vertex 157.67317581413118 364.3934194588276 9.862543096850352
    vertex 157.41890601797454 364.72479030872614 8.362543096850107
  endloop
endfacet
facet normal 0.6087614290087096 0.7933533402912437 5.913783357180855e-17
  outer loop
    vertex 157.67317581413118 364.3934194588276 8.362543096850107
    vertex 157.67317581413118 364.3934194588276 9.862543096850352
    vertex 158.00454666402965 364.139149662671 8.362543096850107
  endloop
endfacet
facet normal 0.6087614290087096 0.7933533402912437 5.913783357180855e-17
  outer loop
    vertex 158.00454666402965 364.139149662671 9.862543096850352
    vertex 158.00454666402965 364.139149662671 8.362543096850107
    vertex 157.67317581413118 364.3934194588276 9.862543096850352
  endloop
endfacet
facet normal 0.3826834323649715 0.9238795325113359 3.7175596315431986e-17
  outer loop
    vertex 158.00454666402965 364.139149662671 8.362543096850107
    vertex 158.00454666402965 364.139149662671 9.862543096850352
    vertex 158.3904361918656 363.9793089866637 8.362543096850107
  endloop
endfacet
facet normal 0.3826834323649715 0.9238795325113359 3.7175596315431986e-17
  outer loop
    vertex 158.3904361918656 363.9793089866637 9.862543096850354
    vertex 158.3904361918656 363.9793089866637 8.362543096850107
    vertex 158.00454666402965 364.139149662671 9.862543096850352
  endloop
endfacet
facet normal -0.38268343236512004 0.9238795325112743 -3.71755962915647e-17
  outer loop
    vertex 155.64114114651878 371.7333232105659 8.362543096850107
    vertex 155.64114114651878 371.7333232105659 9.862543096850352
    vertex 156.6513164409938 372.15175151791175 8.362543096850107
  endloop
endfacet
facet normal -0.38268343236512004 0.9238795325112743 -3.71755962915647e-17
  outer loop
    vertex 156.6513164409938 372.15175151791175 9.862543096850352
    vertex 156.6513164409938 372.15175151791175 8.362543096850107
    vertex 155.64114114651878 371.7333232105659 9.862543096850352
  endloop
endfacet
facet normal -0.3826834323649715 0.9238795325113359 -3.717559629155026e-17
  outer loop
    vertex 159.21865713619368 363.9793089866637 8.362543096850109
    vertex 159.21865713619368 363.9793089866637 9.862543096850354
    vertex 159.60454666402964 364.139149662671 8.362543096850109
  endloop
endfacet
facet normal -0.3826834323649715 0.9238795325113359 -3.717559629155026e-17
  outer loop
    vertex 159.60454666402964 364.139149662671 9.862543096850354
    vertex 159.60454666402964 364.139149662671 8.362543096850109
    vertex 159.21865713619368 363.9793089866637 9.862543096850354
  endloop
endfacet
facet normal -0.7933533402912577 0.6087614290086913 -7.706992518441383e-17
  outer loop
    vertex 160.19018731008475 364.72479030872614 8.362543096850109
    vertex 159.9359175139281 364.3934194588276 8.362543096850109
    vertex 160.19018731008475 364.72479030872614 9.862543096850354
  endloop
endfacet
facet normal -0.7933533402912577 0.6087614290086913 -7.706992518441383e-17
  outer loop
    vertex 159.9359175139281 364.3934194588276 9.862543096850354
    vertex 160.19018731008475 364.72479030872614 9.862543096850354
    vertex 159.9359175139281 364.3934194588276 8.362543096850109
  endloop
endfacet
facet normal -0.7604059656000446 0.6494480483301678 -7.386926846036342e-17
  outer loop
    vertex 153.87742705611242 370.45190991664344 8.362543096850107
    vertex 153.1673167545183 369.6204775781299 8.362543096850107
    vertex 153.87742705611242 370.45190991664344 9.862543096850352
  endloop
endfacet
facet normal -0.7604059656000446 0.6494480483301678 -7.386926846036342e-17
  outer loop
    vertex 153.1673167545183 369.6204775781299 9.862543096850352
    vertex 153.87742705611242 370.45190991664344 9.862543096850352
    vertex 153.1673167545183 369.6204775781299 8.362543096850107
  endloop
endfacet
facet normal -0.9238795325112896 -0.38268343236508273 -8.974982879016947e-17
  outer loop
    vertex 160.19018731008475 366.32479030872616 8.362543096850109
    vertex 160.35002798609216 365.9389007808902 8.362543096850109
    vertex 160.19018731008475 366.32479030872616 9.862543096850354
  endloop
endfacet
facet normal -0.9238795325112896 -0.38268343236508273 -8.974982879016947e-17
  outer loop
    vertex 160.35002798609216 365.9389007808902 9.862543096850354
    vertex 160.19018731008475 366.32479030872616 9.862543096850354
    vertex 160.35002798609216 365.9389007808902 8.362543096850109
  endloop
endfacet
facet normal -0.9914448613738098 0.13052619222005576 -9.631342986337133e-17
  outer loop
    vertex 160.40454666402965 365.52479030872615 8.362543096850109
    vertex 160.35002798609216 365.1106798365621 8.362543096850109
    vertex 160.40454666402965 365.52479030872615 9.862543096850354
  endloop
endfacet
facet normal -0.9914448613738098 0.13052619222005576 -9.631342986337133e-17
  outer loop
    vertex 160.35002798609216 365.1106798365621 9.862543096850354
    vertex 160.40454666402965 365.52479030872615 9.862543096850354
    vertex 160.35002798609216 365.1106798365621 8.362543096850109
  endloop
endfacet
facet normal 0.6087614290087096 -0.7933533402912437 5.913783355130085e-17
  outer loop
    vertex 157.67317581413118 366.6561611586247 9.862543096850352
    vertex 157.67317581413118 366.6561611586247 8.362543096850107
    vertex 158.00454666402965 366.91043095478125 9.862543096850352
  endloop
endfacet
facet normal 0.6087614290087096 -0.7933533402912437 5.913783355130085e-17
  outer loop
    vertex 158.00454666402965 366.91043095478125 8.362543096850107
    vertex 158.00454666402965 366.91043095478125 9.862543096850352
    vertex 157.67317581413118 366.6561611586247 8.362543096850107
  endloop
endfacet
facet normal 0.9914448613738098 -0.13052619222005576 9.631342986337133e-17
  outer loop
    vertex 157.20454666402964 365.52479030872615 8.362543096850107
    vertex 157.25906534196716 365.9389007808902 8.362543096850107
    vertex 157.20454666402964 365.52479030872615 9.862543096850352
  endloop
endfacet
facet normal 0.9914448613738098 -0.13052619222005576 9.631342986337133e-17
  outer loop
    vertex 157.25906534196716 365.9389007808902 9.862543096850352
    vertex 157.20454666402964 365.52479030872615 9.862543096850352
    vertex 157.25906534196716 365.9389007808902 8.362543096850107
  endloop
endfacet
facet normal -0.852640164354083 0.5224985647159641 -8.28293149345307e-17
  outer loop
    vertex 153.1673167545183 369.6204775781299 8.362543096850107
    vertex 152.59601376218987 368.688195826237 8.362543096850107
    vertex 153.1673167545183 369.6204775781299 9.862543096850352
  endloop
endfacet
facet normal -0.852640164354083 0.5224985647159641 -8.28293149345307e-17
  outer loop
    vertex 152.59601376218987 368.688195826237 9.862543096850352
    vertex 153.1673167545183 369.6204775781299 9.862543096850352
    vertex 152.59601376218987 368.688195826237 8.362543096850107
  endloop
endfacet
facet normal 0.9914448613738098 0.13052619222005576 9.631342986674535e-17
  outer loop
    vertex 157.25906534196716 365.1106798365621 8.362543096850107
    vertex 157.20454666402964 365.52479030872615 8.362543096850107
    vertex 157.25906534196716 365.1106798365621 9.862543096850352
  endloop
endfacet
facet normal 0.9914448613738098 0.13052619222005576 9.631342986674535e-17
  outer loop
    vertex 157.20454666402964 365.52479030872615 9.862543096850352
    vertex 157.25906534196716 365.1106798365621 9.862543096850352
    vertex 157.20454666402964 365.52479030872615 8.362543096850107
  endloop
endfacet
facet normal -0.9238795325112896 0.38268343236508273 -8.974982878027733e-17
  outer loop
    vertex 160.35002798609216 365.1106798365621 8.362543096850109
    vertex 160.19018731008475 364.72479030872614 8.362543096850109
    vertex 160.35002798609216 365.1106798365621 9.862543096850354
  endloop
endfacet
facet normal -0.9238795325112896 0.38268343236508273 -8.974982878027733e-17
  outer loop
    vertex 160.19018731008475 364.72479030872614 9.862543096850354
    vertex 160.35002798609216 365.1106798365621 9.862543096850354
    vertex 160.19018731008475 364.72479030872614 8.362543096850109
  endloop
endfacet
facet normal -0.7933533402912577 -0.6087614290086913 -7.706992520014995e-17
  outer loop
    vertex 159.9359175139281 366.6561611586247 8.362543096850109
    vertex 160.19018731008475 366.32479030872616 8.362543096850109
    vertex 159.9359175139281 366.6561611586247 9.862543096850354
  endloop
endfacet
facet normal -0.7933533402912577 -0.6087614290086913 -7.706992520014995e-17
  outer loop
    vertex 160.19018731008475 366.32479030872616 9.862543096850354
    vertex 159.9359175139281 366.6561611586247 9.862543096850354
    vertex 160.19018731008475 366.32479030872616 8.362543096850109
  endloop
endfacet
facet normal -0.07845909572780732 0.9969173337331311 -7.621870761839893e-18
  outer loop
    vertex 157.7145114097214 372.4070020466641 8.362543096850107
    vertex 157.7145114097214 372.4070020466641 9.862543096850352
    vertex 158.80454666402966 372.4927896816771 8.362543096850107
  endloop
endfacet
facet normal -0.07845909572780732 0.9969173337331311 -7.621870761839893e-18
  outer loop
    vertex 158.80454666402966 372.4927896816771 9.862543096850354
    vertex 158.80454666402966 372.4927896816771 8.362543096850107
    vertex 157.7145114097214 372.4070020466641 9.862543096850352
  endloop
endfacet
facet normal -0.13052619222011586 0.991444861373802 -1.2679903580135539e-17
  outer loop
    vertex 158.80454666402966 363.92479030872613 8.362543096850107
    vertex 158.80454666402966 363.92479030872613 9.862543096850354
    vertex 159.21865713619368 363.9793089866637 8.362543096850109
  endloop
endfacet
facet normal -0.13052619222011586 0.991444861373802 -1.2679903580135539e-17
  outer loop
    vertex 159.21865713619368 363.9793089866637 9.862543096850354
    vertex 159.21865713619368 363.9793089866637 8.362543096850109
    vertex 158.80454666402966 363.92479030872613 9.862543096850354
  endloop
endfacet
facet normal 0.13052619222011586 0.991444861373802 1.2679903605763788e-17
  outer loop
    vertex 158.3904361918656 363.9793089866637 8.362543096850107
    vertex 158.3904361918656 363.9793089866637 9.862543096850354
    vertex 158.80454666402966 363.92479030872613 8.362543096850107
  endloop
endfacet
facet normal 0.13052619222011586 0.991444861373802 1.2679903605763788e-17
  outer loop
    vertex 158.80454666402966 363.92479030872613 9.862543096850354
    vertex 158.80454666402966 363.92479030872613 8.362543096850107
    vertex 158.3904361918656 363.9793089866637 9.862543096850354
  endloop
endfacet
facet normal -0.13052619222011586 -0.991444861373802 -1.2679903605763788e-17
  outer loop
    vertex 158.80454666402966 367.1247903087261 9.862543096850354
    vertex 158.80454666402966 367.1247903087261 8.362543096850107
    vertex 159.21865713619368 367.0702716307886 9.862543096850354
  endloop
endfacet
facet normal -0.13052619222011586 -0.991444861373802 -1.2679903605763788e-17
  outer loop
    vertex 159.21865713619368 367.0702716307886 8.362543096850109
    vertex 159.21865713619368 367.0702716307886 9.862543096850354
    vertex 158.80454666402966 367.1247903087261 8.362543096850107
  endloop
endfacet
facet normal -0.9914448613738098 -0.13052619222005576 -9.631342986674535e-17
  outer loop
    vertex 160.35002798609216 365.9389007808902 8.362543096850109
    vertex 160.40454666402965 365.52479030872615 8.362543096850109
    vertex 160.35002798609216 365.9389007808902 9.862543096850354
  endloop
endfacet
facet normal -0.9914448613738098 -0.13052619222005576 -9.631342986674535e-17
  outer loop
    vertex 160.40454666402965 365.52479030872615 9.862543096850354
    vertex 160.35002798609216 365.9389007808902 9.862543096850354
    vertex 160.40454666402965 365.52479030872615 8.362543096850109
  endloop
endfacet
facet normal 0.3826834323649715 -0.9238795325113359 3.717559629155026e-17
  outer loop
    vertex 158.00454666402965 366.91043095478125 9.862543096850352
    vertex 158.00454666402965 366.91043095478125 8.362543096850107
    vertex 158.3904361918656 367.0702716307886 9.862543096850354
  endloop
endfacet
facet normal 0.3826834323649715 -0.9238795325113359 3.717559629155026e-17
  outer loop
    vertex 158.3904361918656 367.0702716307886 8.362543096850107
    vertex 158.3904361918656 367.0702716307886 9.862543096850354
    vertex 158.00454666402965 366.91043095478125 8.362543096850107
  endloop
endfacet
facet normal -0.233445363855924 0.9723699203976721 -2.2677936557606765e-17
  outer loop
    vertex 156.6513164409938 372.15175151791175 8.362543096850107
    vertex 156.6513164409938 372.15175151791175 9.862543096850352
    vertex 157.7145114097214 372.4070020466641 8.362543096850107
  endloop
endfacet
facet normal -0.233445363855924 0.9723699203976721 -2.2677936557606765e-17
  outer loop
    vertex 157.7145114097214 372.4070020466641 9.862543096850352
    vertex 157.7145114097214 372.4070020466641 8.362543096850107
    vertex 156.6513164409938 372.15175151791175 9.862543096850352
  endloop
endfacet
facet normal -0.6494480483301506 0.7604059656000591 -6.309031543864875e-17
  outer loop
    vertex 153.87742705611242 370.45190991664344 8.362543096850107
    vertex 153.87742705611242 370.45190991664344 9.862543096850352
    vertex 154.70885939462588 371.16202021823744 8.362543096850107
  endloop
endfacet
facet normal -0.6494480483301506 0.7604059656000591 -6.309031543864875e-17
  outer loop
    vertex 154.70885939462588 371.16202021823744 9.862543096850352
    vertex 154.70885939462588 371.16202021823744 8.362543096850107
    vertex 153.87742705611242 370.45190991664344 9.862543096850352
  endloop
endfacet
facet normal -0.6087614290087096 -0.7933533402912437 -5.913783357180855e-17
  outer loop
    vertex 159.60454666402964 366.91043095478125 9.862543096850354
    vertex 159.60454666402964 366.91043095478125 8.362543096850109
    vertex 159.9359175139281 366.6561611586247 9.862543096850354
  endloop
endfacet
facet normal -0.6087614290087096 -0.7933533402912437 -5.913783357180855e-17
  outer loop
    vertex 159.9359175139281 366.6561611586247 8.362543096850109
    vertex 159.9359175139281 366.6561611586247 9.862543096850354
    vertex 159.60454666402964 366.91043095478125 8.362543096850109
  endloop
endfacet
facet normal -0.6087614290087096 0.7933533402912437 -5.913783355130085e-17
  outer loop
    vertex 159.60454666402964 364.139149662671 8.362543096850109
    vertex 159.60454666402964 364.139149662671 9.862543096850354
    vertex 159.9359175139281 364.3934194588276 8.362543096850109
  endloop
endfacet
facet normal -0.6087614290087096 0.7933533402912437 -5.913783355130085e-17
  outer loop
    vertex 159.9359175139281 364.3934194588276 9.862543096850354
    vertex 159.9359175139281 364.3934194588276 8.362543096850109
    vertex 159.60454666402964 364.139149662671 9.862543096850354
  endloop
endfacet
endsolid Skull V3
